<svg width="200" height="170" viewBox="0 0 200 170" fill="none" xmlns="http://www.w3.org/2000/svg">
<path d="M191.406 -4.76559C193.047 -4.21872 194.531 -2.56247 194.875 -0.890597C195.547 2.32815 192.328 5.54689 189.109 4.87502C186.688 4.37502 184.813 1.90627 185.047 -0.421848C185.219 -2.06247 186.453 -3.74997 188.016 -4.51559C188.969 -4.96872 190.438 -5.07809 191.406 -4.76559Z" fill="white" fill-opacity="0.15"/>
<path d="M171.406 -4.7656C173.766 -3.98435 175.359 -1.39061 174.875 0.890635C174.484 2.75001 172.75 4.48438 170.906 4.875C167.875 5.51563 164.734 2.65626 165.047 -0.421862C165.219 -2.06248 166.453 -3.74998 168.016 -4.5156C168.969 -4.96873 170.438 -5.0781 171.406 -4.7656Z" fill="white" fill-opacity="0.15"/>
<path d="M151.406 -4.76559C153.047 -4.21872 154.531 -2.56247 154.875 -0.890597C155.547 2.32815 152.328 5.54689 149.109 4.87502C146.688 4.37502 144.813 1.90627 145.047 -0.421848C145.219 -2.06247 146.453 -3.74997 148.016 -4.51559C148.969 -4.96872 150.438 -5.07809 151.406 -4.76559Z" fill="white" fill-opacity="0.15"/>
<path d="M131.406 -4.76559C133.047 -4.21872 134.531 -2.56247 134.875 -0.890597C135.547 2.32815 132.328 5.54689 129.109 4.87502C126.688 4.37502 124.813 1.90627 125.047 -0.421848C125.219 -2.06247 126.453 -3.74997 128.016 -4.51559C128.969 -4.96872 130.438 -5.07809 131.406 -4.76559Z" fill="white" fill-opacity="0.15"/>
<path d="M111.406 -4.76559C113.047 -4.21872 114.531 -2.56247 114.875 -0.890597C115.547 2.32815 112.328 5.54689 109.109 4.87502C106.687 4.37502 104.812 1.90627 105.047 -0.421848C105.219 -2.06247 106.453 -3.74997 108.016 -4.51559C108.969 -4.96872 110.437 -5.07809 111.406 -4.76559Z" fill="white" fill-opacity="0.15"/>
<path d="M91.4062 -4.76559C93.0469 -4.21872 94.5313 -2.56247 94.875 -0.890597C95.5469 2.32815 92.3281 5.54689 89.1094 4.87502C86.6875 4.37502 84.8124 1.90627 85.0468 -0.421848C85.2187 -2.06247 86.4531 -3.74997 88.0156 -4.51559C88.9687 -4.96872 90.4375 -5.07809 91.4062 -4.76559Z" fill="white" fill-opacity="0.15"/>
<path d="M71.4063 -4.76559C73.0469 -4.21872 74.5313 -2.56247 74.875 -0.890597C75.5469 2.32815 72.3282 5.54689 69.1094 4.87502C66.6875 4.37502 64.8125 1.90627 65.0469 -0.421848C65.2188 -2.06247 66.4532 -3.74997 68.0157 -4.51559C68.9688 -4.96872 70.4375 -5.07809 71.4063 -4.76559Z" fill="white" fill-opacity="0.15"/>
<path d="M51.4062 -4.76559C53.0468 -4.21872 54.5311 -2.56247 54.8749 -0.890597C55.5468 2.32815 52.328 5.54689 49.1093 4.87502C46.6874 4.37502 44.8125 1.90627 45.0468 -0.421848C45.2187 -2.06247 46.4531 -3.74997 48.0156 -4.51559C48.9687 -4.96872 50.4374 -5.07809 51.4062 -4.76559Z" fill="white" fill-opacity="0.15"/>
<path d="M31.8151 -4.33953C33.4558 -3.79265 34.9401 -2.1364 35.2839 -0.464522C35.6745 1.36361 34.7839 3.34798 33.0651 4.51986C31.3932 5.67611 29.487 5.69173 27.7995 4.56673C25.0338 2.72298 24.6588 -0.714521 26.9714 -3.0114C28.2995 -4.35515 30.2057 -4.87078 31.8151 -4.33953Z" fill="white" fill-opacity="0.15"/>
<path d="M11.4061 -4.76561C13.0467 -4.21874 14.5311 -2.56248 14.8748 -0.890608C15.2655 0.937519 14.3748 2.9219 12.6561 4.09377C10.9842 5.25002 9.07793 5.26565 7.39042 4.14065C4.62479 2.2969 4.24979 -1.14061 6.5623 -3.43748C7.89043 -4.78124 9.79668 -5.29686 11.4061 -4.76561Z" fill="white" fill-opacity="0.15"/>
<path d="M191.406 15.2344C193.047 15.7812 194.531 17.4375 194.875 19.1094C195.547 22.3281 192.328 25.5469 189.109 24.875C186.688 24.375 184.813 21.9063 185.047 19.5781C185.219 17.9375 186.453 16.25 188.016 15.4844C188.969 15.0312 190.438 14.9219 191.406 15.2344Z" fill="white" fill-opacity="0.15"/>
<path d="M171.406 15.2344C173.047 15.7812 174.531 17.4375 174.875 19.1094C175.547 22.3281 172.328 25.5469 169.109 24.875C166.688 24.375 164.813 21.9063 165.047 19.5781C165.219 17.9375 166.453 16.25 168.016 15.4844C168.969 15.0312 170.438 14.9219 171.406 15.2344Z" fill="white" fill-opacity="0.15"/>
<path d="M151.406 15.2344C153.047 15.7812 154.531 17.4375 154.875 19.1094C155.547 22.3281 152.328 25.5469 149.109 24.875C146.688 24.375 144.813 21.9063 145.047 19.5781C145.219 17.9375 146.453 16.25 148.016 15.4844C148.969 15.0312 150.438 14.9219 151.406 15.2344Z" fill="white" fill-opacity="0.15"/>
<path d="M131.406 15.2344C133.047 15.7812 134.531 17.4375 134.875 19.1094C135.547 22.3281 132.328 25.5469 129.109 24.875C126.688 24.375 124.813 21.9063 125.047 19.5781C125.219 17.9375 126.453 16.25 128.016 15.4844C128.969 15.0312 130.438 14.9219 131.406 15.2344Z" fill="white" fill-opacity="0.15"/>
<path d="M111.406 15.2344C113.047 15.7812 114.531 17.4375 114.875 19.1094C115.547 22.3281 112.328 25.5469 109.109 24.875C106.687 24.375 104.812 21.9063 105.047 19.5781C105.219 17.9375 106.453 16.25 108.016 15.4844C108.969 15.0312 110.437 14.9219 111.406 15.2344Z" fill="white" fill-opacity="0.15"/>
<path d="M91.4062 15.2344C93.0469 15.7812 94.5313 17.4375 94.875 19.1094C95.5469 22.3281 92.3281 25.5469 89.1094 24.875C86.6875 24.375 84.8124 21.9063 85.0468 19.5781C85.2187 17.9375 86.4531 16.25 88.0156 15.4844C88.9687 15.0312 90.4375 14.9219 91.4062 15.2344Z" fill="white" fill-opacity="0.15"/>
<path d="M71.4063 15.2344C73.0469 15.7812 74.5313 17.4375 74.875 19.1094C75.5469 22.3281 72.3282 25.5469 69.1094 24.875C66.6875 24.375 64.8125 21.9063 65.0469 19.5781C65.2188 17.9375 66.4532 16.25 68.0157 15.4844C68.9688 15.0312 70.4375 14.9219 71.4063 15.2344Z" fill="white" fill-opacity="0.15"/>
<path d="M51.4062 15.2344C53.0468 15.7812 54.5311 17.4375 54.8749 19.1094C55.5468 22.3281 52.328 25.5469 49.1093 24.875C46.6874 24.375 44.8125 21.9063 45.0468 19.5781C45.2187 17.9375 46.4531 16.25 48.0156 15.4844C48.9687 15.0312 50.4374 14.9219 51.4062 15.2344Z" fill="white" fill-opacity="0.15"/>
<path d="M31.4062 15.2344C33.0469 15.7812 34.5313 17.4375 34.875 19.1094C35.5469 22.3281 32.3281 25.5469 29.1093 24.875C26.6875 24.375 24.8124 21.9063 25.0468 19.5781C25.2187 17.9375 26.4531 16.25 28.0156 15.4844C28.9687 15.0312 30.4375 14.9219 31.4062 15.2344Z" fill="white" fill-opacity="0.15"/>
<path d="M11.4064 15.2344C13.047 15.7812 14.5314 17.4375 14.8751 19.1094C15.547 22.3281 12.3282 25.5469 9.10948 24.875C6.68759 24.375 4.81258 21.9063 5.04695 19.5781C5.21883 17.9375 6.45321 16.25 8.01572 15.4844C8.96885 15.0312 10.4376 14.9219 11.4064 15.2344Z" fill="white" fill-opacity="0.15"/>
<path d="M191.406 35.2344C193.047 35.7813 194.531 37.4375 194.875 39.1094C195.547 42.3281 192.328 45.5469 189.109 44.875C186.688 44.375 184.813 41.9063 185.047 39.5782C185.219 37.9375 186.453 36.25 188.016 35.4844C188.969 35.0313 190.438 34.9219 191.406 35.2344Z" fill="white" fill-opacity="0.15"/>
<path d="M171.406 35.2344C173.047 35.7813 174.531 37.4375 174.875 39.1094C175.547 42.3281 172.328 45.5469 169.109 44.875C166.688 44.375 164.813 41.9063 165.047 39.5782C165.219 37.9375 166.453 36.25 168.016 35.4844C168.969 35.0313 170.438 34.9219 171.406 35.2344Z" fill="white" fill-opacity="0.15"/>
<path d="M151.406 35.2344C153.047 35.7813 154.531 37.4375 154.875 39.1094C155.547 42.3281 152.328 45.5469 149.109 44.875C146.688 44.375 144.813 41.9063 145.047 39.5782C145.219 37.9375 146.453 36.25 148.016 35.4844C148.969 35.0313 150.438 34.9219 151.406 35.2344Z" fill="white" fill-opacity="0.15"/>
<path d="M131.406 35.2344C133.047 35.7813 134.531 37.4375 134.875 39.1094C135.547 42.3281 132.328 45.5469 129.109 44.875C126.688 44.375 124.813 41.9063 125.047 39.5782C125.219 37.9375 126.453 36.25 128.016 35.4844C128.969 35.0313 130.438 34.9219 131.406 35.2344Z" fill="white" fill-opacity="0.15"/>
<path d="M111.406 35.2344C113.047 35.7813 114.531 37.4375 114.875 39.1094C115.547 42.3281 112.328 45.5469 109.109 44.875C106.687 44.375 104.812 41.9063 105.047 39.5782C105.219 37.9375 106.453 36.25 108.016 35.4844C108.969 35.0313 110.437 34.9219 111.406 35.2344Z" fill="white" fill-opacity="0.15"/>
<path d="M91.4062 35.2344C93.0469 35.7813 94.5313 37.4375 94.875 39.1094C95.5469 42.3281 92.3281 45.5469 89.1094 44.875C86.6875 44.375 84.8124 41.9063 85.0468 39.5782C85.2187 37.9375 86.4531 36.25 88.0156 35.4844C88.9687 35.0313 90.4375 34.9219 91.4062 35.2344Z" fill="white" fill-opacity="0.15"/>
<path d="M71.4063 35.2344C73.0469 35.7813 74.5313 37.4375 74.875 39.1094C75.5469 42.3281 72.3282 45.5469 69.1094 44.875C66.6875 44.375 64.8125 41.9063 65.0469 39.5782C65.2188 37.9375 66.4532 36.25 68.0157 35.4844C68.9688 35.0313 70.4375 34.9219 71.4063 35.2344Z" fill="white" fill-opacity="0.15"/>
<path d="M51.4062 35.2344C53.0468 35.7813 54.5311 37.4375 54.8749 39.1094C55.5468 42.3281 52.328 45.5469 49.1093 44.875C46.6874 44.375 44.8125 41.9063 45.0468 39.5782C45.2187 37.9375 46.4531 36.25 48.0156 35.4844C48.9687 35.0313 50.4374 34.9219 51.4062 35.2344Z" fill="white" fill-opacity="0.15"/>
<path d="M31.4062 35.2344C33.0469 35.7813 34.5313 37.4375 34.875 39.1094C35.5469 42.3281 32.3281 45.5469 29.1093 44.875C26.6875 44.375 24.8124 41.9063 25.0468 39.5782C25.2187 37.9375 26.4531 36.25 28.0156 35.4844C28.9687 35.0313 30.4375 34.9219 31.4062 35.2344Z" fill="white" fill-opacity="0.15"/>
<path d="M11.4064 35.2344C13.047 35.7813 14.5314 37.4375 14.8751 39.1094C15.547 42.3281 12.3282 45.5469 9.10948 44.875C6.68759 44.375 4.81258 41.9063 5.04695 39.5782C5.21883 37.9375 6.45321 36.25 8.01572 35.4844C8.96885 35.0313 10.4376 34.9219 11.4064 35.2344Z" fill="white" fill-opacity="0.15"/>
<path d="M191.406 55.2344C193.047 55.7812 194.531 57.4375 194.875 59.1094C195.547 62.3281 192.328 65.5469 189.109 64.875C186.688 64.375 184.813 61.9063 185.047 59.5781C185.219 57.9375 186.453 56.25 188.016 55.4844C188.969 55.0312 190.438 54.9219 191.406 55.2344Z" fill="white" fill-opacity="0.15"/>
<path d="M171.406 55.2344C173.047 55.7812 174.531 57.4375 174.875 59.1094C175.547 62.3281 172.328 65.5469 169.109 64.875C166.688 64.375 164.813 61.9063 165.047 59.5781C165.219 57.9375 166.453 56.25 168.016 55.4844C168.969 55.0312 170.438 54.9219 171.406 55.2344Z" fill="white" fill-opacity="0.15"/>
<path d="M151.406 55.2344C153.047 55.7812 154.531 57.4375 154.875 59.1094C155.547 62.3281 152.328 65.5469 149.109 64.875C146.688 64.375 144.813 61.9063 145.047 59.5781C145.219 57.9375 146.453 56.25 148.016 55.4844C148.969 55.0312 150.438 54.9219 151.406 55.2344Z" fill="white" fill-opacity="0.15"/>
<path d="M131.406 55.2344C133.047 55.7812 134.531 57.4375 134.875 59.1094C135.547 62.3281 132.328 65.5469 129.109 64.875C126.688 64.375 124.813 61.9063 125.047 59.5781C125.219 57.9375 126.453 56.25 128.016 55.4844C128.969 55.0312 130.438 54.9219 131.406 55.2344Z" fill="white" fill-opacity="0.15"/>
<path d="M111.406 55.2344C113.047 55.7812 114.531 57.4375 114.875 59.1094C115.547 62.3281 112.328 65.5469 109.109 64.875C106.687 64.375 104.812 61.9063 105.047 59.5781C105.219 57.9375 106.453 56.25 108.016 55.4844C108.969 55.0312 110.437 54.9219 111.406 55.2344Z" fill="white" fill-opacity="0.15"/>
<path d="M91.4062 55.2344C93.0469 55.7812 94.5313 57.4375 94.875 59.1094C95.5469 62.3281 92.3281 65.5469 89.1094 64.875C86.6875 64.375 84.8124 61.9063 85.0468 59.5781C85.2187 57.9375 86.4531 56.25 88.0156 55.4844C88.9687 55.0312 90.4375 54.9219 91.4062 55.2344Z" fill="white" fill-opacity="0.15"/>
<path d="M71.4063 55.2344C73.0469 55.7812 74.5313 57.4375 74.875 59.1094C75.5469 62.3281 72.3282 65.5469 69.1094 64.875C66.6875 64.375 64.8125 61.9063 65.0469 59.5781C65.2188 57.9375 66.4532 56.25 68.0157 55.4844C68.9688 55.0312 70.4375 54.9219 71.4063 55.2344Z" fill="white" fill-opacity="0.15"/>
<path d="M51.4062 55.2344C53.0468 55.7812 54.5311 57.4375 54.8749 59.1094C55.5468 62.3281 52.328 65.5469 49.1093 64.875C46.6874 64.375 44.8125 61.9063 45.0468 59.5781C45.2187 57.9375 46.4531 56.25 48.0156 55.4844C48.9687 55.0312 50.4374 54.9219 51.4062 55.2344Z" fill="white" fill-opacity="0.15"/>
<path d="M31.4062 55.2344C33.0469 55.7812 34.5313 57.4375 34.875 59.1094C35.5469 62.3281 32.3281 65.5469 29.1093 64.875C26.6875 64.375 24.8124 61.9063 25.0468 59.5781C25.2187 57.9375 26.4531 56.25 28.0156 55.4844C28.9687 55.0312 30.4375 54.9219 31.4062 55.2344Z" fill="white" fill-opacity="0.15"/>
<path d="M11.4064 55.2344C13.047 55.7812 14.5314 57.4375 14.8751 59.1094C15.547 62.3281 12.3282 65.5469 9.10948 64.875C6.68759 64.375 4.81258 61.9063 5.04695 59.5781C5.21883 57.9375 6.45321 56.25 8.01572 55.4844C8.96885 55.0312 10.4376 54.9219 11.4064 55.2344Z" fill="white" fill-opacity="0.15"/>
<path d="M191.406 75.2343C193.047 75.7812 194.531 77.4375 194.875 79.1094C195.547 82.3281 192.328 85.5469 189.109 84.875C186.688 84.375 184.813 81.9063 185.047 79.5781C185.219 77.9375 186.453 76.25 188.016 75.4843C188.969 75.0312 190.438 74.9218 191.406 75.2343Z" fill="white" fill-opacity="0.15"/>
<path d="M171.406 75.2343C173.047 75.7812 174.531 77.4375 174.875 79.1094C175.547 82.3281 172.328 85.5469 169.109 84.875C166.688 84.375 164.813 81.9063 165.047 79.5781C165.219 77.9375 166.453 76.25 168.016 75.4843C168.969 75.0312 170.438 74.9218 171.406 75.2343Z" fill="white" fill-opacity="0.15"/>
<path d="M151.406 75.2343C153.047 75.7812 154.531 77.4375 154.875 79.1094C155.547 82.3281 152.328 85.5469 149.109 84.875C146.688 84.375 144.813 81.9063 145.047 79.5781C145.219 77.9375 146.453 76.25 148.016 75.4843C148.969 75.0312 150.438 74.9218 151.406 75.2343Z" fill="white" fill-opacity="0.15"/>
<path d="M131.406 75.2343C133.047 75.7812 134.531 77.4375 134.875 79.1094C135.547 82.3281 132.328 85.5469 129.109 84.875C126.688 84.375 124.813 81.9063 125.047 79.5781C125.219 77.9375 126.453 76.25 128.016 75.4843C128.969 75.0312 130.438 74.9218 131.406 75.2343Z" fill="white" fill-opacity="0.15"/>
<path d="M111.406 75.2343C113.047 75.7812 114.531 77.4375 114.875 79.1094C115.547 82.3281 112.328 85.5469 109.109 84.875C106.687 84.375 104.812 81.9063 105.047 79.5781C105.219 77.9375 106.453 76.25 108.016 75.4843C108.969 75.0312 110.437 74.9218 111.406 75.2343Z" fill="white" fill-opacity="0.15"/>
<path d="M91.4062 75.2343C93.0469 75.7812 94.5313 77.4375 94.875 79.1094C95.5469 82.3281 92.3281 85.5469 89.1094 84.875C86.6875 84.375 84.8124 81.9063 85.0468 79.5781C85.2187 77.9375 86.4531 76.25 88.0156 75.4843C88.9687 75.0312 90.4375 74.9218 91.4062 75.2343Z" fill="white" fill-opacity="0.15"/>
<path d="M71.4063 75.2343C73.0469 75.7812 74.5313 77.4375 74.875 79.1094C75.5469 82.3281 72.3282 85.5469 69.1094 84.875C66.6875 84.375 64.8125 81.9063 65.0469 79.5781C65.2188 77.9375 66.4532 76.25 68.0157 75.4843C68.9688 75.0312 70.4375 74.9218 71.4063 75.2343Z" fill="white" fill-opacity="0.15"/>
<path d="M51.4062 75.2343C53.0468 75.7812 54.5311 77.4375 54.8749 79.1094C55.5468 82.3281 52.328 85.5469 49.1093 84.875C46.6874 84.375 44.8125 81.9063 45.0468 79.5781C45.2187 77.9375 46.4531 76.25 48.0156 75.4843C48.9687 75.0312 50.4374 74.9218 51.4062 75.2343Z" fill="white" fill-opacity="0.15"/>
<path d="M31.4062 75.2343C33.0469 75.7812 34.5313 77.4375 34.875 79.1094C35.5469 82.3281 32.3281 85.5469 29.1093 84.875C26.6875 84.375 24.8124 81.9063 25.0468 79.5781C25.2187 77.9375 26.4531 76.25 28.0156 75.4843C28.9687 75.0312 30.4375 74.9218 31.4062 75.2343Z" fill="white" fill-opacity="0.15"/>
<path d="M11.4064 75.2343C13.047 75.7812 14.5314 77.4375 14.8751 79.1094C15.547 82.3281 12.3282 85.5469 9.10948 84.875C6.68759 84.375 4.81258 81.9063 5.04695 79.5781C5.21883 77.9375 6.45321 76.25 8.01572 75.4843C8.96885 75.0312 10.4376 74.9218 11.4064 75.2343Z" fill="white" fill-opacity="0.15"/>
<path d="M191.406 95.2344C193.047 95.7813 194.531 97.4376 194.875 99.1094C195.547 102.328 192.328 105.547 189.109 104.875C186.688 104.375 184.813 101.906 185.047 99.5782C185.219 97.9376 186.453 96.2501 188.016 95.4844C188.969 95.0313 190.438 94.9219 191.406 95.2344Z" fill="white" fill-opacity="0.15"/>
<path d="M171.406 95.2344C173.047 95.7813 174.531 97.4376 174.875 99.1094C175.547 102.328 172.328 105.547 169.109 104.875C166.688 104.375 164.813 101.906 165.047 99.5782C165.219 97.9376 166.453 96.2501 168.016 95.4844C168.969 95.0313 170.438 94.9219 171.406 95.2344Z" fill="white" fill-opacity="0.15"/>
<path d="M151.406 95.2344C153.047 95.7812 154.531 97.4375 154.875 99.1094C155.266 100.938 154.375 102.922 152.656 104.094C150.984 105.25 149.078 105.266 147.391 104.141C144.625 102.297 144.25 98.8594 146.563 96.5625C147.891 95.2187 149.797 94.7031 151.406 95.2344Z" fill="white" fill-opacity="0.15"/>
<path d="M131.406 95.2344C133.047 95.7812 134.531 97.4375 134.875 99.1094C135.266 100.938 134.375 102.922 132.656 104.094C130.984 105.25 129.078 105.266 127.391 104.141C124.625 102.297 124.25 98.8594 126.563 96.5625C127.891 95.2187 129.797 94.7031 131.406 95.2344Z" fill="white" fill-opacity="0.15"/>
<path d="M111.406 95.2345C113.766 96.0157 115.359 98.6094 114.875 100.891C114.484 102.75 112.75 104.484 110.891 104.875C107.875 105.516 104.734 102.656 105.047 99.5782C105.219 97.9376 106.453 96.2501 108.016 95.4845C108.969 95.0313 110.438 94.922 111.406 95.2345Z" fill="white" fill-opacity="0.15"/>
<path d="M91.4063 95.2345C93.7657 96.0157 95.3594 98.6094 94.875 100.891C94.4844 102.75 92.75 104.484 90.8907 104.875C87.875 105.516 84.7344 102.656 85.0469 99.5782C85.2188 97.9376 86.4532 96.2501 88.0157 95.4845C88.9688 95.0313 90.4375 94.922 91.4063 95.2345Z" fill="white" fill-opacity="0.15"/>
<path d="M71.4063 95.2345C73.7657 96.0157 75.3594 98.6094 74.875 100.891C74.4844 102.75 72.75 104.484 70.8906 104.875C67.875 105.516 64.7344 102.656 65.0469 99.5782C65.2187 97.9376 66.4531 96.2501 68.0156 95.4845C68.9688 95.0313 70.4375 94.922 71.4063 95.2345Z" fill="white" fill-opacity="0.15"/>
<path d="M51.4061 95.2345C53.7655 96.0157 55.3593 98.6094 54.8749 100.891C54.4843 102.75 52.7499 104.484 50.8905 104.875C47.8749 105.516 44.7342 102.656 45.0467 99.5782C45.2186 97.9376 46.453 96.2501 48.0155 95.4845C48.9686 95.0313 50.4374 94.922 51.4061 95.2345Z" fill="white" fill-opacity="0.15"/>
<path d="M31.4062 95.2344C33.0469 95.7813 34.5313 97.4376 34.875 99.1094C35.5469 102.328 32.3281 105.547 29.1093 104.875C26.6875 104.375 24.8124 101.906 25.0468 99.5782C25.2187 97.9376 26.4531 96.2501 28.0156 95.4844C28.9687 95.0313 30.4375 94.9219 31.4062 95.2344Z" fill="white" fill-opacity="0.15"/>
<path d="M11.4064 95.2344C13.047 95.7813 14.5314 97.4376 14.8751 99.1094C15.547 102.328 12.3282 105.547 9.10948 104.875C6.68759 104.375 4.81258 101.906 5.04695 99.5782C5.21883 97.9376 6.45321 96.2501 8.01572 95.4844C8.96885 95.0313 10.4376 94.9219 11.4064 95.2344Z" fill="white" fill-opacity="0.15"/>
<path d="M191.406 115.234C193.047 115.781 194.531 117.437 194.875 119.109C195.547 122.328 192.328 125.547 189.109 124.875C186.688 124.375 184.813 121.906 185.047 119.578C185.219 117.937 186.453 116.25 188.016 115.484C188.969 115.031 190.438 114.922 191.406 115.234Z" fill="white" fill-opacity="0.15"/>
<path d="M171.406 115.234C173.047 115.781 174.531 117.437 174.875 119.109C175.547 122.328 172.328 125.547 169.109 124.875C166.688 124.375 164.813 121.906 165.047 119.578C165.219 117.937 166.453 116.25 168.016 115.484C168.969 115.031 170.438 114.922 171.406 115.234Z" fill="white" fill-opacity="0.15"/>
<path d="M151.406 115.234C153.047 115.781 154.531 117.438 154.875 119.109C155.266 120.938 154.375 122.922 152.656 124.094C150.984 125.25 149.078 125.266 147.391 124.141C144.625 122.297 144.25 118.859 146.563 116.563C147.891 115.219 149.797 114.703 151.406 115.234Z" fill="white" fill-opacity="0.15"/>
<path d="M131.406 115.234C133.047 115.781 134.531 117.438 134.875 119.109C135.266 120.938 134.375 122.922 132.656 124.094C130.984 125.25 129.078 125.266 127.391 124.141C124.625 122.297 124.25 118.859 126.563 116.563C127.891 115.219 129.797 114.703 131.406 115.234Z" fill="white" fill-opacity="0.15"/>
<path d="M111.406 115.234C113.766 116.016 115.359 118.609 114.875 120.891C114.484 122.75 112.75 124.484 110.891 124.875C107.875 125.516 104.734 122.656 105.047 119.578C105.219 117.938 106.453 116.25 108.016 115.484C108.969 115.031 110.438 114.922 111.406 115.234Z" fill="white" fill-opacity="0.15"/>
<path d="M91.4063 115.234C93.7657 116.016 95.3594 118.609 94.875 120.891C94.4844 122.75 92.75 124.484 90.8907 124.875C87.875 125.516 84.7344 122.656 85.0469 119.578C85.2188 117.938 86.4532 116.25 88.0157 115.484C88.9688 115.031 90.4375 114.922 91.4063 115.234Z" fill="white" fill-opacity="0.15"/>
<path d="M71.4063 115.234C73.7657 116.016 75.3594 118.609 74.875 120.891C74.4844 122.75 72.75 124.484 70.8906 124.875C67.875 125.516 64.7344 122.656 65.0469 119.578C65.2187 117.938 66.4531 116.25 68.0156 115.484C68.9688 115.031 70.4375 114.922 71.4063 115.234Z" fill="white" fill-opacity="0.15"/>
<path d="M51.4061 115.234C53.7655 116.016 55.3593 118.609 54.8749 120.891C54.4843 122.75 52.7499 124.484 50.8905 124.875C47.8749 125.516 44.7342 122.656 45.0467 119.578C45.2186 117.938 46.453 116.25 48.0155 115.484C48.9686 115.031 50.4374 114.922 51.4061 115.234Z" fill="white" fill-opacity="0.15"/>
<path d="M31.4062 115.234C33.0469 115.781 34.5313 117.437 34.875 119.109C35.5469 122.328 32.3281 125.547 29.1093 124.875C26.6875 124.375 24.8124 121.906 25.0468 119.578C25.2187 117.937 26.4531 116.25 28.0156 115.484C28.9687 115.031 30.4375 114.922 31.4062 115.234Z" fill="white" fill-opacity="0.15"/>
<path d="M11.4064 115.234C13.047 115.781 14.5314 117.437 14.8751 119.109C15.547 122.328 12.3282 125.547 9.10948 124.875C6.68759 124.375 4.81258 121.906 5.04695 119.578C5.21883 117.937 6.45321 116.25 8.01572 115.484C8.96885 115.031 10.4376 114.922 11.4064 115.234Z" fill="white" fill-opacity="0.15"/>
<path d="M191.406 135.234C193.047 135.781 194.531 137.437 194.875 139.109C195.547 142.328 192.328 145.547 189.109 144.875C186.688 144.375 184.813 141.906 185.047 139.578C185.219 137.937 186.453 136.25 188.016 135.484C188.969 135.031 190.438 134.922 191.406 135.234Z" fill="white" fill-opacity="0.15"/>
<path d="M171.406 135.234C173.047 135.781 174.531 137.437 174.875 139.109C175.547 142.328 172.328 145.547 169.109 144.875C166.688 144.375 164.813 141.906 165.047 139.578C165.219 137.937 166.453 136.25 168.016 135.484C168.969 135.031 170.438 134.922 171.406 135.234Z" fill="white" fill-opacity="0.15"/>
<path d="M151.406 135.234C153.047 135.781 154.531 137.437 154.875 139.109C155.266 140.938 154.375 142.922 152.656 144.094C150.984 145.25 149.078 145.266 147.391 144.141C144.625 142.297 144.25 138.859 146.563 136.562C147.891 135.219 149.797 134.703 151.406 135.234Z" fill="white" fill-opacity="0.15"/>
<path d="M131.406 135.234C133.047 135.781 134.531 137.437 134.875 139.109C135.266 140.938 134.375 142.922 132.656 144.094C130.984 145.25 129.078 145.266 127.391 144.141C124.625 142.297 124.25 138.859 126.563 136.562C127.891 135.219 129.797 134.703 131.406 135.234Z" fill="white" fill-opacity="0.15"/>
<path d="M111.406 135.234C113.047 135.781 114.531 137.437 114.875 139.109C115.547 142.328 112.328 145.547 109.109 144.875C106.687 144.375 104.812 141.906 105.047 139.578C105.219 137.937 106.453 136.25 108.016 135.484C108.969 135.031 110.437 134.922 111.406 135.234Z" fill="white" fill-opacity="0.15"/>
<path d="M91.4062 135.234C93.0469 135.781 94.5313 137.437 94.875 139.109C95.5469 142.328 92.3281 145.547 89.1094 144.875C86.6875 144.375 84.8124 141.906 85.0468 139.578C85.2187 137.937 86.4531 136.25 88.0156 135.484C88.9687 135.031 90.4375 134.922 91.4062 135.234Z" fill="white" fill-opacity="0.15"/>
<path d="M71.4063 135.234C73.0469 135.781 74.5313 137.437 74.875 139.109C75.5469 142.328 72.3282 145.547 69.1094 144.875C66.6875 144.375 64.8125 141.906 65.0469 139.578C65.2188 137.937 66.4532 136.25 68.0157 135.484C68.9688 135.031 70.4375 134.922 71.4063 135.234Z" fill="white" fill-opacity="0.15"/>
<path d="M51.4062 135.234C53.0468 135.781 54.5311 137.437 54.8749 139.109C55.5468 142.328 52.328 145.547 49.1093 144.875C46.6874 144.375 44.8125 141.906 45.0468 139.578C45.2187 137.937 46.4531 136.25 48.0156 135.484C48.9687 135.031 50.4374 134.922 51.4062 135.234Z" fill="white" fill-opacity="0.15"/>
<path d="M31.4062 135.234C33.0469 135.781 34.5313 137.437 34.875 139.109C35.5469 142.328 32.3281 145.547 29.1093 144.875C26.6875 144.375 24.8124 141.906 25.0468 139.578C25.2187 137.937 26.4531 136.25 28.0156 135.484C28.9687 135.031 30.4375 134.922 31.4062 135.234Z" fill="white" fill-opacity="0.15"/>
<path d="M11.4064 135.234C13.047 135.781 14.5314 137.437 14.8751 139.109C15.547 142.328 12.3282 145.547 9.10948 144.875C6.68759 144.375 4.81258 141.906 5.04695 139.578C5.21883 137.937 6.45321 136.25 8.01572 135.484C8.96885 135.031 10.4376 134.922 11.4064 135.234Z" fill="white" fill-opacity="0.15"/>
<path d="M191.406 155.234C193.047 155.781 194.531 157.437 194.875 159.109C195.547 162.328 192.328 165.547 189.109 164.875C186.688 164.375 184.813 161.906 185.047 159.578C185.219 157.937 186.453 156.25 188.016 155.484C188.969 155.031 190.438 154.922 191.406 155.234Z" fill="white" fill-opacity="0.15"/>
<path d="M171.406 155.234C173.047 155.781 174.531 157.438 174.875 159.109C175.547 162.328 172.328 165.547 169.109 164.875C166.688 164.375 164.813 161.906 165.047 159.578C165.219 157.938 166.453 156.25 168.016 155.484C168.969 155.031 170.438 154.922 171.406 155.234Z" fill="white" fill-opacity="0.15"/>
<path d="M151.406 155.234C153.047 155.781 154.531 157.438 154.875 159.109C155.547 162.328 152.328 165.547 149.109 164.875C146.688 164.375 144.813 161.906 145.047 159.578C145.219 157.938 146.453 156.25 148.016 155.484C148.969 155.031 150.438 154.922 151.406 155.234Z" fill="white" fill-opacity="0.15"/>
<path d="M131.406 155.234C133.047 155.781 134.531 157.438 134.875 159.109C135.547 162.328 132.328 165.547 129.109 164.875C126.688 164.375 124.813 161.906 125.047 159.578C125.219 157.938 126.453 156.25 128.016 155.484C128.969 155.031 130.438 154.922 131.406 155.234Z" fill="white" fill-opacity="0.15"/>
<path d="M111.406 155.234C113.047 155.781 114.531 157.438 114.875 159.109C115.547 162.328 112.328 165.547 109.109 164.875C106.687 164.375 104.812 161.906 105.047 159.578C105.219 157.938 106.453 156.25 108.016 155.484C108.969 155.031 110.437 154.922 111.406 155.234Z" fill="white" fill-opacity="0.15"/>
<path d="M91.4062 155.234C93.0469 155.781 94.5313 157.438 94.875 159.109C95.5469 162.328 92.3281 165.547 89.1094 164.875C86.6875 164.375 84.8124 161.906 85.0468 159.578C85.2187 157.938 86.4531 156.25 88.0156 155.484C88.9687 155.031 90.4375 154.922 91.4062 155.234Z" fill="white" fill-opacity="0.15"/>
<path d="M71.4063 155.234C73.0469 155.781 74.5313 157.438 74.875 159.109C75.5469 162.328 72.3282 165.547 69.1094 164.875C66.6875 164.375 64.8125 161.906 65.0469 159.578C65.2188 157.938 66.4532 156.25 68.0157 155.484C68.9688 155.031 70.4375 154.922 71.4063 155.234Z" fill="white" fill-opacity="0.15"/>
<path d="M51.4062 155.234C53.0468 155.781 54.5311 157.438 54.8749 159.109C55.5468 162.328 52.328 165.547 49.1093 164.875C46.6874 164.375 44.8125 161.906 45.0468 159.578C45.2187 157.938 46.4531 156.25 48.0156 155.484C48.9687 155.031 50.4374 154.922 51.4062 155.234Z" fill="white" fill-opacity="0.15"/>
<path d="M31.4062 155.234C33.0469 155.781 34.5313 157.438 34.875 159.109C35.5469 162.328 32.3281 165.547 29.1093 164.875C26.6875 164.375 24.8124 161.906 25.0468 159.578C25.2187 157.938 26.4531 156.25 28.0156 155.484C28.9687 155.031 30.4375 154.922 31.4062 155.234Z" fill="white" fill-opacity="0.15"/>
<path d="M11.4064 155.234C13.047 155.781 14.5314 157.438 14.8751 159.109C15.547 162.328 12.3282 165.547 9.10948 164.875C6.68759 164.375 4.81258 161.906 5.04695 159.578C5.21883 157.938 6.45321 156.25 8.01572 155.484C8.96885 155.031 10.4376 154.922 11.4064 155.234Z" fill="white" fill-opacity="0.15"/>
</svg>
