<svg width="720" height="554" viewBox="0 0 720 554" fill="none" xmlns="http://www.w3.org/2000/svg">
<path fill-rule="evenodd" clip-rule="evenodd" d="M-117 388.125C-117 173.77 56.7696 0 271.125 0C485.482 0 659.25 173.77 659.25 388.125C659.25 602.482 485.482 776.25 271.125 776.25C56.7696 776.25 -117 602.482 -117 388.125ZM-27.6929 431.25C-6.76733 577.543 119.046 690 271.125 690C423.205 690 549.018 577.543 569.942 431.25H393.139C375.375 481.499 327.455 517.5 271.125 517.5C214.795 517.5 166.871 481.499 149.111 431.25H-27.6929ZM569.942 345C549.018 198.707 423.205 86.25 271.125 86.25C119.046 86.25 -6.76733 198.707 -27.6929 345H149.111C166.871 294.751 214.795 258.75 271.125 258.75C327.455 258.75 375.375 294.751 393.139 345H569.942ZM271.125 431.25C294.943 431.25 314.25 411.943 314.25 388.125C314.25 364.307 294.943 345 271.125 345C247.307 345 228 364.307 228 388.125C228 411.943 247.307 431.25 271.125 431.25Z" fill="white" fill-opacity="0.05"/>
</svg>
